<svg width="210" height="212" viewBox="0 0 210 212" fill="none" xmlns="http://www.w3.org/2000/svg">
<path d="M32.0853 33.6559C43.1694 26.8395 79.0848 21.2899 95.657 19.3672C101.709 20.8658 109.589 23.0792 118.294 25.8911C122.278 16.9458 133.713 -0.635035 147.577 0.603641C161.44 1.84231 177.937 5.36434 184.452 6.97052L150.632 27.7125L145.978 36.0473C164.283 43.676 181.885 53.1512 191.239 63.5981C210.163 84.7336 194.358 128 184.09 146.991C187.289 154.535 195.845 170.829 204.475 175.648C213.104 180.467 207.737 201.179 203.975 210.933L173.155 193.722C158.362 185.461 163.801 174.273 168.37 169.711C164.085 168.335 152.417 167.509 140.024 175.22C127.631 182.932 105.942 171.091 96.6467 164.207C102.626 157.723 117.712 143.861 130.223 140.28C145.863 135.805 155.163 148.111 159.921 139.591C164.679 131.07 151.16 82.8773 124.68 74.1863C124.255 74.047 123.831 73.9173 123.408 73.797L116.894 88.1282L117.827 109.988C113.623 109.672 102.961 106.563 93.9418 96.6494C88.9622 91.1757 88.4483 84.7678 89.6504 79.2423C76.6429 85.342 64.7951 93.2469 54.9983 92.1759C40.5186 90.593 13.0086 71.4372 1.06363 62.0571C6.78583 55.4302 21.0012 40.4723 32.0853 33.6559Z" fill="#77B8C0"/>
<path d="M118.294 25.8911C109.589 23.0792 101.709 20.8658 95.657 19.3672C79.0848 21.2899 43.1694 26.8395 32.0853 33.6559C21.0012 40.4724 6.78583 55.4302 1.06363 62.0571C13.0086 71.4372 40.5186 90.593 54.9984 92.1759C73.0981 94.1545 98.1992 65.4954 124.68 74.1863C151.16 82.8773 164.679 131.07 159.921 139.591C155.163 148.111 145.863 135.805 130.223 140.28C117.712 143.861 102.626 157.723 96.6467 164.207C105.942 171.091 127.631 182.932 140.024 175.22C152.417 167.509 164.085 168.335 168.37 169.711C163.801 174.273 158.362 185.461 173.155 193.722C187.949 201.983 199.866 208.638 203.975 210.933C207.737 201.179 213.104 180.467 204.475 175.648C195.845 170.829 187.289 154.535 184.09 146.991C194.358 128 210.163 84.7337 191.239 63.5981C181.885 53.1512 164.283 43.676 145.978 36.0473M118.294 25.8911C122.278 16.9458 133.713 -0.635034 147.577 0.60364C161.44 1.84231 177.937 5.36434 184.452 6.97052L150.632 27.7125L145.978 36.0473M118.294 25.8911C127.03 28.7131 136.596 32.1377 145.978 36.0473M94.4955 68.5076C90.553 73.7575 84.9229 86.7356 93.9418 96.6494C102.961 106.563 113.623 109.672 117.827 109.988L116.894 88.1282L125.734 68.6782L94.4955 68.5076Z" stroke="#5C926E"/>
</svg>
