<svg width="210" height="212" viewBox="0 0 210 212" fill="none" xmlns="http://www.w3.org/2000/svg">
<path d="M32.0851 33.6559C43.1691 26.8395 79.0845 21.2899 95.6567 19.3672C101.708 20.8658 109.589 23.0792 118.294 25.8911C122.278 16.9458 133.713 -0.635035 147.576 0.603641C161.44 1.84232 177.936 5.36434 184.452 6.97052L150.632 27.7125L145.977 36.0473C164.283 43.676 181.884 53.1512 191.239 63.5981C210.163 84.7336 194.358 128 184.09 146.991C187.289 154.535 195.845 170.829 204.474 175.648C213.104 180.467 207.737 201.179 203.975 210.933L173.155 193.722C158.362 185.461 163.801 174.273 168.369 169.711C164.084 168.335 152.416 167.509 140.024 175.22C127.631 182.932 105.942 171.091 96.6464 164.207C102.625 157.723 117.711 143.861 130.223 140.28C145.862 135.805 155.163 148.111 159.921 139.591C164.678 131.07 151.16 82.8773 124.68 74.1863C124.255 74.047 123.831 73.9173 123.407 73.797L116.894 88.1282L117.827 109.988C113.623 109.672 102.961 106.563 93.9416 96.6494C88.9619 91.1757 88.4481 84.7677 89.6502 79.2423C76.6427 85.342 64.7948 93.2469 54.9981 92.1759C40.5183 90.593 13.0084 71.4372 1.06339 62.0571C6.78558 55.4302 21.001 40.4724 32.0851 33.6559Z" fill="#77B8C0"/>
<path d="M118.294 25.8911C109.589 23.0792 101.708 20.8658 95.6567 19.3672C79.0845 21.2899 43.1691 26.8395 32.0851 33.6559C21.001 40.4724 6.78559 55.4302 1.06339 62.0571C13.0084 71.4372 40.5183 90.593 54.9981 92.1759C64.7948 93.2469 76.6427 85.342 89.6502 79.2423M118.294 25.8911C122.278 16.9458 133.713 -0.635033 147.576 0.603641C161.44 1.84232 177.936 5.36434 184.452 6.97052L150.632 27.7125L145.977 36.0473M118.294 25.8911C127.03 28.7131 136.596 32.1377 145.977 36.0473M145.977 36.0473C164.283 43.676 181.884 53.1512 191.239 63.5981C210.163 84.7336 194.358 128 184.09 146.991C187.289 154.535 195.845 170.829 204.474 175.648C213.104 180.467 207.737 201.179 203.975 210.933C199.866 208.638 187.949 201.983 173.155 193.722C158.362 185.461 163.801 174.273 168.369 169.711C164.084 168.335 152.416 167.509 140.024 175.22C127.631 182.932 105.942 171.091 96.6464 164.207C102.625 157.723 117.711 143.861 130.223 140.28C145.862 135.805 155.163 148.111 159.921 139.591C164.678 131.07 151.16 82.8773 124.68 74.1863C112.532 70.1995 100.675 74.0726 89.6502 79.2423M89.6502 79.2423C90.6253 74.7603 92.7295 70.8589 94.4952 68.5076L125.734 68.6782L116.894 88.1282L117.827 109.988C113.623 109.672 102.961 106.563 93.9416 96.6494C88.9619 91.1757 88.4481 84.7677 89.6502 79.2423Z" stroke="#5C926E"/>
</svg>
