<svg width="117" height="117" viewBox="0 0 117 117" fill="none" xmlns="http://www.w3.org/2000/svg">
<path fill-rule="evenodd" clip-rule="evenodd" d="M21.2144 78.4265C19.6183 56.3466 27.322 43.3154 31.5015 36.2455C31.7454 35.8329 31.9775 35.4404 32.1948 35.0679C37.893 32.2524 44.4357 30.8446 48.3103 30.2815L50.2141 34.2232C57.103 33.1496 60.925 33.1509 67.6702 34.2232L69.641 30C75.6206 31.1262 80.9701 32.8155 85.4078 35.0679C91.669 42.9513 98.4262 58.4365 96.7369 78.4265C91.7816 82.7061 81.5599 86.5915 77.2429 87.9992C76.1167 86.873 73.9581 83.0252 73.0196 81.242C74.371 81.0168 77.8998 79.0835 79.4953 78.145L77.806 77.0188C76.0228 78.4265 69.8662 81.242 59.5052 81.242C49.1442 81.242 41.8614 78.4265 39.5152 77.0188L38.1074 78.145C39.2336 79.2712 42.8937 80.6789 44.583 81.242C43.9073 83.044 41.486 86.4976 40.3598 87.9992C32.7579 85.7468 25.3438 81.5236 21.2144 78.4265ZM78.4361 62.0968C78.4361 66.4507 75.4108 69.9802 71.6789 69.9802C67.947 69.9802 64.9217 66.4507 64.9217 62.0968C64.9217 57.7429 67.947 54.2134 71.6789 54.2134C75.4108 54.2134 78.4361 57.7429 78.4361 62.0968ZM46.3396 69.9802C50.0715 69.9802 53.0968 66.4507 53.0968 62.0968C53.0968 57.7429 50.0715 54.2134 46.3396 54.2134C42.6078 54.2134 39.5825 57.7429 39.5825 62.0968C39.5825 66.4507 42.6078 69.9802 46.3396 69.9802Z" fill="#5FB8CC"/>
<rect x="5" y="5" width="107" height="107" rx="25" stroke="#5FB8CC" stroke-width="10"/>
</svg>
