<svg width="117" height="117" viewBox="0 0 117 117" fill="none" xmlns="http://www.w3.org/2000/svg">
<rect x="5" y="5" width="107" height="107" rx="25" stroke="#7BC0CA" stroke-width="10"/>
<path d="M60.2919 96.4482C54.1768 96.4482 48.7412 95.6134 43.9851 93.9439C39.2483 92.2938 35.2493 89.8575 31.9879 86.6349C28.7266 83.4318 26.2514 79.5201 24.5625 74.8999C22.8736 70.2796 22.0194 64.9993 22 59.059C22.0194 53.2545 22.8833 48.0227 24.5916 43.3636C26.3 38.6851 28.7945 34.6861 32.0753 31.3665C35.3561 28.0275 39.3648 25.465 44.1016 23.679C48.8383 21.893 54.2254 21 60.2628 21C65.9508 21 70.9884 21.8639 75.3757 23.5916C79.7824 25.3194 83.5 27.7266 86.5284 30.8132C89.5762 33.8804 91.8767 37.4718 93.4297 41.5874C95.0021 45.6835 95.7884 50.129 95.7884 54.924C95.7884 58.2436 95.536 61.3885 95.0312 64.3587C94.5265 67.3094 93.6626 69.9302 92.4396 72.2209C91.236 74.5116 89.5956 76.3364 87.5185 77.6953C85.4413 79.0348 82.84 79.7628 79.7145 79.8793C77.7538 79.9763 76.0357 79.7919 74.5604 79.326C73.085 78.8601 71.8911 78.1321 70.9787 77.142C70.0857 76.1326 69.5227 74.8999 69.2898 73.4439H68.9403C68.4938 74.6087 67.6494 75.6764 66.407 76.647C65.1839 77.5983 63.6697 78.3456 61.8643 78.8892C60.059 79.4134 58.0497 79.6269 55.8366 79.5298C53.4683 79.4134 51.2746 78.8698 49.2557 77.8992C47.2562 76.9091 45.509 75.5308 44.0142 73.7642C42.5388 71.9782 41.3935 69.8234 40.5781 67.2997C39.7628 64.776 39.3551 61.9126 39.3551 58.7095C39.3551 55.584 39.8016 52.8274 40.6946 50.4396C41.5876 48.0518 42.7815 46.0135 44.2763 44.3246C45.7905 42.6357 47.4988 41.3156 49.4013 40.3643C51.3037 39.3937 53.2644 38.7725 55.2834 38.5007C57.38 38.2095 59.3504 38.2386 61.1946 38.5881C63.0388 38.9375 64.5724 39.4714 65.7955 40.1896C67.0379 40.9079 67.8144 41.6941 68.125 42.5483H68.5327V39.2869H76.657V67.0085C76.6764 68.4645 77.0258 69.639 77.7053 70.532C78.4041 71.425 79.3748 71.8715 80.6172 71.8715C82.1702 71.8715 83.4224 71.2599 84.3736 70.0369C85.3442 68.7945 86.0431 66.892 86.4702 64.3295C86.9167 61.7476 87.1302 58.4474 87.1108 54.429C87.1302 51.1288 86.6934 48.1392 85.8004 45.4602C84.9268 42.7618 83.6844 40.3935 82.0732 38.3551C80.4619 36.3168 78.5303 34.6181 76.2784 33.2592C74.0459 31.8809 71.5611 30.8423 68.8239 30.1435C66.0866 29.4446 63.165 29.0952 60.059 29.0952C55.3028 29.0952 51.1193 29.8232 47.5085 31.2791C43.8977 32.7157 40.8693 34.7637 38.4233 37.4233C35.9967 40.0829 34.1622 43.2375 32.9197 46.8871C31.6967 50.5173 31.0852 54.5358 31.0852 58.9425C31.0852 63.6598 31.7259 67.8433 33.0071 71.4929C34.3078 75.1231 36.2102 78.1806 38.7145 80.6655C41.2188 83.1503 44.3151 85.0334 48.0036 86.3146C51.7114 87.5959 55.9725 88.2365 60.7869 88.2365C63 88.2365 65.1645 88.0618 67.2805 87.7124C69.3965 87.3629 71.299 86.9553 72.9879 86.4893C74.6768 86.0234 75.9775 85.6158 76.8899 85.2663L79.3651 92.6626C78.1615 93.2839 76.5308 93.8857 74.473 94.468C72.4347 95.0504 70.1828 95.526 67.7173 95.8949C65.2713 96.2637 62.7962 96.4482 60.2919 96.4482ZM58.2536 71.1726C60.719 71.1726 62.6894 70.697 64.1648 69.7457C65.6402 68.7751 66.6982 67.3385 67.3388 65.4361C67.9794 63.5336 68.29 61.1652 68.2706 58.331C68.2706 55.6908 67.9406 53.5263 67.2805 51.8374C66.6205 50.1484 65.5625 48.8963 64.1065 48.081C62.6506 47.2656 60.719 46.858 58.3118 46.858C56.1375 46.858 54.2836 47.353 52.75 48.343C51.2358 49.3331 50.071 50.7017 49.2557 52.4489C48.4598 54.1766 48.0618 56.147 48.0618 58.3601C48.0618 60.5732 48.3821 62.66 49.0227 64.6207C49.6828 66.562 50.7505 68.1442 52.2259 69.3672C53.7206 70.5708 55.7299 71.1726 58.2536 71.1726Z" fill="#7BC0CA"/>
</svg>
