<svg width="117" height="117" viewBox="0 0 117 117" fill="none" xmlns="http://www.w3.org/2000/svg">
<path d="M48.9722 105.661C48.9722 106.375 48.0804 106.851 47.6344 107H73.9445V87.8022C73.9445 84.5877 71.8634 82.296 70.8229 81.5519C83.755 80.2126 92.2277 73.0692 93.5655 62.3542C94.9033 51.6393 93.1196 47.1748 88.6602 42.7102C90.8007 38.4243 88.9575 31.9953 87.7684 29.3166C84.2009 27.977 77.9579 31.1026 73.9445 34.674C70.8229 32.4415 54.7694 31.9956 48.9722 34.674C44.3345 30.0309 37.5266 29.1678 34.7024 29.3166C31.8484 33.2454 33.2159 39.8827 34.2565 42.7102C31.5809 44.4961 28.9053 50.7465 28.9053 57.8897C28.9053 65.033 32.9187 73.9621 38.2698 77.5338C42.5508 80.3911 49.2695 81.4031 52.0938 81.5519C51.6478 81.8495 50.5776 82.802 49.8641 84.2306C49.1506 85.6593 48.9722 87.5046 48.9722 88.2487C47.3371 88.844 43.2643 89.856 40.0536 89.1416C36.0402 88.2487 35.1483 85.5701 32.4727 81.9985C29.7971 78.4268 24 78.4268 24 79.7662C24 81.1056 26.2297 81.1056 28.9053 84.6772C31.5809 88.2489 30.2431 89.1418 34.2565 93.1599C37.4672 96.3744 45.4048 95.9874 48.9722 95.3922V105.661Z" fill="#7BC0CA"/>
<rect x="5" y="5" width="107" height="107" rx="25" stroke="#7BC0CA" stroke-width="10"/>
</svg>
