<svg width="141" height="143" viewBox="0 0 141 143" fill="none" xmlns="http://www.w3.org/2000/svg">
<path d="M135.062 71.5C135.062 108.325 105.849 138 70.0308 138C34.2126 138 5 108.325 5 71.5C5 34.6747 34.2126 5 70.0308 5C105.849 5 135.062 34.6747 135.062 71.5Z" stroke="#9FBFFF" stroke-opacity="0.5" stroke-width="10"/>
<path d="M39.1263 45.813C40.144 38.2363 45.2217 32.9745 47.5539 31.4486C47.7679 31.3086 47.979 31.1673 48.1899 31.0255C46.4408 30.5017 42.6246 27.9801 44.2147 24.819C45.6457 19.9259 53.1192 17.5581 56.7764 19.9259C59.7022 21.8201 59.9036 25.2929 59.6386 26.7926C61.7931 26.5076 64.3943 26.3126 67.5891 26.2398C72.9791 26.01 77.6883 26.654 81.741 27.9801C81.688 26.0319 82.2816 21.8514 85.0802 20.7149C88.5784 19.2943 95.8929 19.6183 97.324 27.9801C97.5124 29.0811 97.324 32.2381 92.7932 34.6058C99.9163 41.6345 102.432 52.1067 100.822 62.2293C97.96 80.2241 76.8117 88.7479 58.8435 85.2753C40.8754 81.8026 34.356 69.3325 35.3101 65.0706C37.055 59.0651 40.6966 61.4219 41.6705 59.5459C41.8344 59.2302 41.6698 58.5912 41.5115 58.2831C39.8231 54.9976 38.1959 52.7403 39.1263 45.813Z" fill="#C9ECFF"/>
<path d="M81.741 27.9801C77.6883 26.654 72.9791 26.01 67.5891 26.2398C64.3943 26.3126 61.7931 26.5076 59.6386 26.7926M81.741 27.9801C81.688 26.0319 82.2816 21.8514 85.0802 20.7149C88.5784 19.2943 95.8929 19.6183 97.324 27.9801C97.5124 29.0811 97.324 32.2381 92.7932 34.6058M81.741 27.9801C86.2138 29.4437 89.8869 31.7381 92.7932 34.6058M92.7932 34.6058C99.9163 41.6345 102.432 52.1067 100.822 62.2293C97.96 80.2241 76.8117 88.7479 58.8435 85.2753C40.8754 81.8026 34.356 69.3325 35.3101 65.0706C37.055 59.0651 40.6966 61.4219 41.6705 59.5459C41.8344 59.2302 41.6698 58.5912 41.5115 58.2831C39.8231 54.9976 38.1959 52.7403 39.1263 45.813C40.144 38.2363 45.2217 32.9745 47.5539 31.4486C47.7679 31.3086 47.979 31.1673 48.1899 31.0255M59.6386 26.7926C59.9036 25.2929 59.7022 21.8201 56.7764 19.9259C53.1192 17.5581 45.6457 19.9259 44.2147 24.819C42.6246 27.9801 46.4408 30.5017 48.1899 31.0255M59.6386 26.7926C53.0352 27.666 50.6289 29.3849 48.1899 31.0255" stroke="#5B91B8"/>
<path d="M41.7015 90.1144C43.7642 90.8879 49.9691 86.4507 52.9772 83.9261C64.9383 87.8085 72.6051 86.4409 86.8275 81.1515C90.4034 78.4608 94.983 68.4233 95.3578 65.0583C94.218 64.4829 92.0782 62.7936 92.6371 60.6394C93.3358 57.9468 98.0071 58.1558 101.062 62.4396C103.506 65.8666 101.55 82.8162 90.7119 98.909C88.4922 116.542 79.0875 123.149 78.1206 123.955C77.1537 124.761 77.9595 124.6 73.4473 124.761C68.9352 124.922 69.5798 124.277 69.0964 122.344C68.7096 120.797 70.5467 120.088 71.5136 119.927C71.5673 119.282 71.5458 117.703 71.0301 116.542C70.3856 115.092 68.4518 115.414 68.1295 116.22C67.8072 117.026 67.9684 122.344 67.8072 123.633C67.6461 124.922 67.3238 125.083 63.134 125.244C58.9441 125.406 58.9441 124.6 58.4607 123.149C58.0739 121.989 59.911 120.947 60.8779 120.571C56.8492 117.617 48.5985 110.58 47.825 106.068C47.0515 101.556 48.1473 96.99 48.7919 95.2711C46.4284 95.8082 41.4437 96.9148 40.4123 97.0437C39.1232 97.2048 35.0945 90.1144 36.5448 87.8583C37.9951 85.6023 39.1232 89.1475 41.7015 90.1144Z" fill="#C9ECFF" stroke="#5B91B8"/>
<path d="M39.1042 97.7988L33 85.5905V83.3708V81.7061L34.3756 82.6231L36.3295 83.9257L42.4337 96.689L39.1042 97.7988Z" fill="white"/>
<path d="M33 85.5905L39.1042 97.7988L42.4337 96.689L36.3295 83.9257M33 85.5905L36.3295 83.9257M33 85.5905V83.3708M36.3295 83.9257L34.3756 82.6231M33 83.3708V81.7061L34.3756 82.6231M33 83.3708L34.3756 82.6231" stroke="#5B91B8"/>
<path d="M74.0643 20.1099L84.6078 23.9943V27.8788C82.7581 30.6534 78.6146 36.3136 76.8389 36.7575C75.0631 37.2015 63.8907 32.6247 58.5264 30.2807C56.9865 32.6103 54.7025 35.228 52.9772 34.5379C50.7575 33.65 48.3528 33.428 47.428 33.428V31.2083L61.301 23.4394C62.0409 23.4394 63.5207 23.4394 64.6306 22.8845C65.6233 22.3881 67.8368 21.5897 68.885 21.2197L70.7347 20.1099H74.0643Z" fill="white"/>
<path d="M74.0643 20.1099L59.6363 28.4337M74.0643 20.1099L84.6078 23.9943M74.0643 20.1099H70.7347L68.885 21.2197M59.6363 28.4337C64.4456 30.6534 74.6192 34.7598 76.8389 33.428C79.0586 32.0962 82.943 26.584 84.6078 23.9943M59.6363 28.4337H56.8617M59.6363 28.4337C59.3479 28.9693 58.9677 29.6132 58.5264 30.2807M84.6078 23.9943V27.8788C82.7581 30.6534 78.6146 36.3136 76.8389 36.7575C75.0631 37.2015 63.8907 32.6247 58.5264 30.2807M56.8617 28.4337C56.4917 29.3586 55.4189 31.4303 54.0871 32.3182C52.7552 33.206 49.0927 31.9482 47.428 31.2083M56.8617 28.4337L68.885 21.2197M47.428 31.2083V33.428C48.3528 33.428 50.7575 33.65 52.9772 34.5379C54.7025 35.228 56.9865 32.6103 58.5264 30.2807M47.428 31.2083L61.301 23.4394C62.0409 23.4394 63.5207 23.4394 64.6306 22.8845C65.6233 22.3881 67.8368 21.5897 68.885 21.2197" stroke="#5B91B8"/>
<ellipse cx="63" cy="69" rx="12" ry="8" fill="white"/>
<path d="M62 64V66M62 66C61.1667 67.8333 58 71 56 67.5M62 66C62.6667 68 66.5 71 69.5 66.5" stroke="#5B91B8"/>
<path d="M78 93.8573C78 96.3207 74.1847 102 68.1078 102C62.0309 102 58 96.3207 58 93.8573C58 92.2512 59.3396 90.8434 62.4815 90.0581C64.1585 89.6389 66.1339 91.6269 68.2486 91.6269C70.3633 91.6269 72.3387 89.6389 74.0157 90.0581C77.1576 90.8434 78 92.2512 78 93.8573Z" fill="white"/>
<path d="M86.8275 109.452C84.1639 108.121 63.1508 91.8799 54.642 84.481L61.301 86.1457L86.8275 105.013C86.6425 104.458 86.4945 103.237 87.3824 102.793C88.4923 102.238 92.9316 102.238 92.9316 103.348C92.9316 104.458 92.9316 112.227 91.8218 112.782C90.7119 113.337 87.9373 113.337 87.3824 112.782C86.9385 112.338 86.8275 110.377 86.8275 109.452Z" fill="white"/>
<path d="M86.8275 109.452C84.1639 108.121 63.1508 91.8799 54.642 84.481L61.301 86.1457L86.8275 105.013M86.8275 109.452V105.013M86.8275 109.452C86.8275 110.377 86.9385 112.338 87.3824 112.782C87.9373 113.337 90.7119 113.337 91.8218 112.782C92.9316 112.227 92.9316 104.458 92.9316 103.348C92.9316 102.238 88.4923 102.238 87.3824 102.793C86.4945 103.237 86.6425 104.458 86.8275 105.013" stroke="#5B91B8"/>
<circle cx="49.0928" cy="57.2896" r="10.0435" stroke="#5B91B8"/>
<circle cx="76.8389" cy="57.2896" r="10.0435" stroke="#5B91B8"/>
<path d="M59.0814 56.7351C59.6363 56.1802 61.1901 55.0703 62.9659 55.0703C64.7416 55.0703 66.2954 55.8102 66.8503 56.1802" stroke="#5B91B8"/>
<path d="M86.8275 57.2896L92.9317 60.0642" stroke="#5B91B8"/>
<circle cx="53.5" cy="58.5" r="2.5" fill="#5B91B8"/>
<circle cx="72.5" cy="58.5" r="2.5" fill="#5B91B8"/>
<path d="M64.5441 62.8648C64.5441 63.4171 63.6773 64.6904 62.2966 64.6904C60.9159 64.6904 60 63.4171 60 62.8648C60 62.5047 60.3044 62.1891 61.0182 62.013C61.3992 61.919 61.8481 62.3647 62.3286 62.3647C62.809 62.3647 63.2579 61.919 63.6389 62.013C64.3527 62.1891 64.5441 62.5047 64.5441 62.8648Z" fill="#5B91B8"/>
<path d="M71 42.9869C72.5 41.487 74.5 40.8307 77 43.3304" stroke="#5B91B8"/>
<path d="M52 49C53 51 54 52 56.5 52.4999" stroke="#5B91B8"/>
</svg>
