<svg width="143" height="143" viewBox="0 0 143 143" fill="none" xmlns="http://www.w3.org/2000/svg">
<circle cx="71.5" cy="71.5" r="66.5" stroke="#FFEE96" stroke-opacity="0.5" stroke-width="10"/>
<path d="M88.5849 54.1948C88.5849 60.832 86.5583 66.8217 83.3055 71.1411C80.0528 75.4602 75.5969 78.0858 70.7164 78.0858C65.8358 78.0858 61.3799 75.4602 58.1272 71.1411C54.8744 66.8217 52.8478 60.832 52.8478 54.1948C52.8478 47.5576 54.8744 41.5678 58.1272 37.2485C61.3799 32.9294 65.8358 30.3037 70.7164 30.3037C75.5969 30.3037 80.0528 32.9294 83.3055 37.2485C86.5583 41.5678 88.5849 47.5576 88.5849 54.1948Z" fill="#FFF8B6" stroke="#E0A25A"/>
<path d="M103.453 69.5458C99.4107 74.6106 94.1416 78.0003 88.9087 79.4007C83.6764 80.8009 78.5106 80.2083 74.6038 77.3616C70.6969 74.515 68.7319 69.912 68.7609 64.7204C68.7898 59.5283 70.817 53.7764 74.8595 48.7116C78.9019 43.6468 84.171 40.2571 89.4039 38.8567C94.6362 37.4565 99.802 38.0491 103.709 40.8958C107.616 43.7424 109.581 48.3454 109.552 53.537C109.523 58.7291 107.496 64.481 103.453 69.5458Z" fill="#FFF8B6" stroke="#E0A25A"/>
<path d="M62.2635 44.6032C66.7663 49.3019 69.326 54.8578 69.8425 60.0269C70.3591 65.1957 68.8341 69.9473 65.2122 73.1158C61.5904 76.2844 56.5025 77.3181 51.1591 76.3721C45.8153 75.4259 40.248 72.5013 35.7452 67.8026C31.2424 63.1039 28.6827 57.5481 28.1662 52.3789C27.6496 47.2101 29.1746 42.4586 32.7965 39.29C36.4183 36.1214 41.5062 35.0877 46.8496 36.0338C52.1934 36.9799 57.7607 39.9045 62.2635 44.6032Z" fill="#FFF8B6" stroke="#E0A25A"/>
<path d="M55.5953 96.9008C49.5437 99.5883 43.2232 100.245 37.9068 99.1564C32.5901 98.0678 28.3147 95.2461 26.2494 91.0006C24.1841 86.755 24.6829 81.8132 27.2396 77.2281C29.7962 72.6433 34.3964 68.4502 40.448 65.7627C46.4996 63.0753 52.8201 62.4186 58.1365 63.5072C63.4533 64.5958 67.7287 67.4175 69.7939 71.663C71.8592 75.9085 71.3604 80.8504 68.8037 85.4355C66.2471 90.0203 61.6469 94.2134 55.5953 96.9008Z" fill="#FFF8B6" stroke="#E0A25A"/>
<path d="M78.7599 105.866C74.7174 110.93 69.4483 114.32 64.2155 115.721C58.9832 117.121 53.8174 116.528 49.9105 113.681C46.0036 110.835 44.0387 106.232 44.0676 101.04C44.0966 95.8481 46.1238 90.0962 50.1662 85.0314C54.2087 79.9667 59.4778 76.5769 64.7107 75.1765C69.943 73.7763 75.1087 74.3689 79.0156 77.2156C82.9225 80.0623 84.8874 84.6653 84.8585 89.8568C84.8295 95.0489 82.8023 100.801 78.7599 105.866Z" fill="#FFF8B6" stroke="#E0A25A"/>
<path d="M75.2709 107.702C70.5659 103.187 67.7651 97.7377 67.0227 92.5934C66.2803 87.4494 67.5962 82.6418 71.0754 79.3321C74.5545 76.0224 79.592 74.7861 84.9725 75.5179C90.3532 76.2497 96.0442 78.9494 100.749 83.4645C105.454 87.9796 108.255 93.4288 108.997 98.5731C109.74 103.717 108.424 108.525 104.945 111.834C101.466 115.144 96.4281 116.38 91.0476 115.649C85.6668 114.917 79.9759 112.217 75.2709 107.702Z" fill="#FFF8B6" stroke="#E0A25A"/>
<path d="M100.954 94.967C94.399 96.1738 88.0986 95.3474 83.2159 93.0602C78.3324 90.7726 74.9024 87.0459 73.9761 82.4529C73.0498 77.8598 74.7848 73.1822 78.429 69.3246C82.0726 65.4676 87.6004 62.4635 94.1552 61.2567C100.71 60.0499 107.01 60.8763 111.893 63.1635C116.777 65.451 120.207 69.1778 121.133 73.7708C122.059 78.3638 120.324 83.0415 116.68 86.8991C113.036 90.7561 107.509 93.7602 100.954 94.967Z" fill="#FFF8B6" stroke="#E0A25A"/>
<path d="M88.585 74.3698C88.585 81.6964 81.983 87.7215 73.7277 87.7215C65.4724 87.7215 58.8704 81.6964 58.8704 74.3698C58.8704 67.0431 65.4724 61.0181 73.7277 61.0181C81.983 61.0181 88.585 67.0431 88.585 74.3698Z" fill="#FFDA59" stroke="#E0A25A"/>
</svg>
