<svg width="143" height="143" viewBox="0 0 143 143" fill="none" xmlns="http://www.w3.org/2000/svg">
<circle cx="71.5" cy="71.5" r="66.5" stroke="#8CFFF8" stroke-opacity="0.5" stroke-width="10"/>
<path d="M22.7485 72.7034C25.5078 67.7722 37.9501 58.0637 43.8264 53.8259C46.4381 53.1128 49.8947 52.2835 53.7905 51.5066C53.4072 47.2713 54.0204 38.1844 59.539 35.7188C65.0576 33.2531 72.058 31.0957 74.8684 30.3252L66.4372 45.3502V49.4958C74.993 48.5124 83.6727 48.3782 89.4313 50.3586C101.082 54.3653 104.25 74.1161 104.377 83.4906C107.188 85.6737 113.882 90.04 118.174 90.04C122.466 90.04 124.817 99.0293 125.455 103.524H110.126C102.768 103.524 102.461 98.1303 103.228 95.4336C101.312 95.8188 96.7127 97.9762 93.6468 103.524C90.581 109.072 79.8504 109.174 74.8684 108.532C75.7626 104.808 78.5474 96.3582 82.533 92.3515C87.5151 87.3432 93.6468 90.04 93.6468 85.8022C93.6468 81.5643 78.3175 66.1541 66.4372 68.4656C66.2468 68.5027 66.0586 68.5433 65.8725 68.5873L66.4372 75.4002L71.4193 83.4906C69.7586 84.2611 65.0576 85.3398 59.539 83.4906C56.492 82.4696 54.9404 80.1488 54.2263 77.7993C50.586 82.8661 47.7676 88.3718 43.8264 90.04C38.0012 92.5056 23.515 91.0673 17 90.04C17.7665 86.3158 19.9892 77.6347 22.7485 72.7034Z" fill="#C6F8FF"/>
<path d="M53.7905 51.5066C49.8947 52.2835 46.4381 53.1128 43.8264 53.8259C37.9501 58.0637 25.5078 67.7722 22.7485 72.7035C19.9892 77.6347 17.7665 86.3158 17 90.04C23.515 91.0673 38.0012 92.5056 43.8264 90.04C51.1078 86.9579 54.5569 70.7772 66.4372 68.4656C78.3175 66.1541 93.6468 81.5643 93.6468 85.8022C93.6468 90.04 87.5151 87.3432 82.533 92.3515C78.5474 96.3582 75.7626 104.808 74.8684 108.532C79.8504 109.174 90.581 109.072 93.6468 103.524C96.7127 97.9762 101.312 95.8188 103.228 95.4336C102.461 98.1303 102.768 103.524 110.126 103.524C117.484 103.524 123.411 103.524 125.455 103.524C124.817 99.0293 122.466 90.04 118.174 90.04C113.882 90.04 107.188 85.6737 104.377 83.4906C104.25 74.1161 101.082 54.3653 89.4313 50.3586C83.6727 48.3782 74.993 48.5124 66.4372 49.4958M53.7905 51.5066C53.4072 47.2713 54.0204 38.1844 59.539 35.7188C65.0576 33.2531 72.058 31.0957 74.8684 30.3252L66.4372 45.3502V49.4958M53.7905 51.5066C57.7002 50.7268 62.0525 49.9998 66.4372 49.4958M53.7905 72.7035C53.4072 75.5287 54.0204 81.6414 59.539 83.4906C65.0576 85.3398 69.7586 84.2611 71.4193 83.4906L66.4372 75.4002L65.6707 66.154L53.7905 72.7035Z" stroke="#51BCDE"/>
</svg>
